<svg width="149" height="40" viewBox="0 0 149 40" fill="none" xmlns="http://www.w3.org/2000/svg">
<path d="M58.918 23.3164C58.7852 25.1523 58.1055 26.5977 56.8789 27.6523C55.6602 28.707 54.0508 29.2344 52.0508 29.2344C49.8633 29.2344 48.1406 28.5 46.8828 27.0312C45.6328 25.5547 45.0078 23.5312 45.0078 20.9609V19.918C45.0078 18.2773 45.2969 16.832 45.875 15.582C46.4531 14.332 47.2773 13.375 48.3477 12.7109C49.4258 12.0391 50.6758 11.7031 52.0977 11.7031C54.0664 11.7031 55.6523 12.2305 56.8555 13.2852C58.0586 14.3398 58.7539 15.8203 58.9414 17.7266H55.4258C55.3398 16.625 55.0312 15.8281 54.5 15.3359C53.9766 14.8359 53.1758 14.5859 52.0977 14.5859C50.9258 14.5859 50.0469 15.0078 49.4609 15.8516C48.8828 16.6875 48.5859 17.9883 48.5703 19.7539V21.043C48.5703 22.8867 48.8477 24.2344 49.4023 25.0859C49.9648 25.9375 50.8477 26.3633 52.0508 26.3633C53.1367 26.3633 53.9453 26.1172 54.4766 25.625C55.0156 25.125 55.3242 24.3555 55.4023 23.3164H58.918ZM60.4766 22.543C60.4766 21.2852 60.7188 20.1641 61.2031 19.1797C61.6875 18.1953 62.3828 17.4336 63.2891 16.8945C64.2031 16.3555 65.2617 16.0859 66.4648 16.0859C68.1758 16.0859 69.5703 16.6094 70.6484 17.6562C71.7344 18.7031 72.3398 20.125 72.4648 21.9219L72.4883 22.7891C72.4883 24.7344 71.9453 26.2969 70.8594 27.4766C69.7734 28.6484 68.3164 29.2344 66.4883 29.2344C64.6602 29.2344 63.1992 28.6484 62.1055 27.4766C61.0195 26.3047 60.4766 24.7109 60.4766 22.6953V22.543ZM63.8633 22.7891C63.8633 23.9922 64.0898 24.9141 64.543 25.5547C64.9961 26.1875 65.6445 26.5039 66.4883 26.5039C67.3086 26.5039 67.9492 26.1914 68.4102 25.5664C68.8711 24.9336 69.1016 23.9258 69.1016 22.543C69.1016 21.3633 68.8711 20.4492 68.4102 19.8008C67.9492 19.1523 67.3008 18.8281 66.4648 18.8281C65.6367 18.8281 64.9961 19.1523 64.543 19.8008C64.0898 20.4414 63.8633 21.4375 63.8633 22.7891ZM74.0469 22.5664C74.0469 20.5898 74.4883 19.0156 75.3711 17.8438C76.2617 16.6719 77.4766 16.0859 79.0156 16.0859C80.25 16.0859 81.2695 16.5469 82.0742 17.4688V11H85.4727V29H82.4141L82.25 27.6523C81.4062 28.707 80.3203 29.2344 78.9922 29.2344C77.5 29.2344 76.3008 28.6484 75.3945 27.4766C74.4961 26.2969 74.0469 24.6602 74.0469 22.5664ZM77.4336 22.8125C77.4336 24 77.6406 24.9102 78.0547 25.543C78.4688 26.1758 79.0703 26.4922 79.8594 26.4922C80.9062 26.4922 81.6445 26.0508 82.0742 25.168V20.1641C81.6523 19.2812 80.9219 18.8398 79.8828 18.8398C78.25 18.8398 77.4336 20.1641 77.4336 22.8125ZM93.9336 29.2344C92.0742 29.2344 90.5586 28.6641 89.3867 27.5234C88.2227 26.3828 87.6406 24.8633 87.6406 22.9648V22.6367C87.6406 21.3633 87.8867 20.2266 88.3789 19.2266C88.8711 18.2188 89.5664 17.4453 90.4648 16.9062C91.3711 16.3594 92.4023 16.0859 93.5586 16.0859C95.293 16.0859 96.6562 16.6328 97.6484 17.7266C98.6484 18.8203 99.1484 20.3711 99.1484 22.3789V23.7617H91.0742C91.1836 24.5898 91.5117 25.2539 92.0586 25.7539C92.6133 26.2539 93.3125 26.5039 94.1562 26.5039C95.4609 26.5039 96.4805 26.0312 97.2148 25.0859L98.8789 26.9492C98.3711 27.668 97.6836 28.2305 96.8164 28.6367C95.9492 29.0352 94.9883 29.2344 93.9336 29.2344ZM93.5469 18.8281C92.875 18.8281 92.3281 19.0547 91.9062 19.5078C91.4922 19.9609 91.2266 20.6094 91.1094 21.4531H95.8203V21.1836C95.8047 20.4336 95.6016 19.8555 95.2109 19.4492C94.8203 19.0352 94.2656 18.8281 93.5469 18.8281ZM114.699 23.3164C114.566 25.1523 113.887 26.5977 112.66 27.6523C111.441 28.707 109.832 29.2344 107.832 29.2344C105.645 29.2344 103.922 28.5 102.664 27.0312C101.414 25.5547 100.789 23.5312 100.789 20.9609V19.918C100.789 18.2773 101.078 16.832 101.656 15.582C102.234 14.332 103.059 13.375 104.129 12.7109C105.207 12.0391 106.457 11.7031 107.879 11.7031C109.848 11.7031 111.434 12.2305 112.637 13.2852C113.84 14.3398 114.535 15.8203 114.723 17.7266H111.207C111.121 16.625 110.812 15.8281 110.281 15.3359C109.758 14.8359 108.957 14.5859 107.879 14.5859C106.707 14.5859 105.828 15.0078 105.242 15.8516C104.664 16.6875 104.367 17.9883 104.352 19.7539V21.043C104.352 22.8867 104.629 24.2344 105.184 25.0859C105.746 25.9375 106.629 26.3633 107.832 26.3633C108.918 26.3633 109.727 26.1172 110.258 25.625C110.797 25.125 111.105 24.3555 111.184 23.3164H114.699ZM124.133 29C123.977 28.6953 123.863 28.3164 123.793 27.8633C122.973 28.7773 121.906 29.2344 120.594 29.2344C119.352 29.2344 118.32 28.875 117.5 28.1562C116.688 27.4375 116.281 26.5312 116.281 25.4375C116.281 24.0938 116.777 23.0625 117.77 22.3438C118.77 21.625 120.211 21.2617 122.094 21.2539H123.652V20.5273C123.652 19.9414 123.5 19.4727 123.195 19.1211C122.898 18.7695 122.426 18.5938 121.777 18.5938C121.207 18.5938 120.758 18.7305 120.43 19.0039C120.109 19.2773 119.949 19.6523 119.949 20.1289H116.562C116.562 19.3945 116.789 18.7148 117.242 18.0898C117.695 17.4648 118.336 16.9766 119.164 16.625C119.992 16.2656 120.922 16.0859 121.953 16.0859C123.516 16.0859 124.754 16.4805 125.668 17.2695C126.59 18.0508 127.051 19.1523 127.051 20.5742V26.0703C127.059 27.2734 127.227 28.1836 127.555 28.8008V29H124.133ZM121.332 26.6445C121.832 26.6445 122.293 26.5352 122.715 26.3164C123.137 26.0898 123.449 25.7891 123.652 25.4141V23.2344H122.387C120.691 23.2344 119.789 23.8203 119.68 24.9922L119.668 25.1914C119.668 25.6133 119.816 25.9609 120.113 26.2344C120.41 26.5078 120.816 26.6445 121.332 26.6445ZM136.52 25.4961C136.52 25.082 136.312 24.7578 135.898 24.5234C135.492 24.2812 134.836 24.0664 133.93 23.8789C130.914 23.2461 129.406 21.9648 129.406 20.0352C129.406 18.9102 129.871 17.9727 130.801 17.2227C131.738 16.4648 132.961 16.0859 134.469 16.0859C136.078 16.0859 137.363 16.4648 138.324 17.2227C139.293 17.9805 139.777 18.9648 139.777 20.1758H136.391C136.391 19.6914 136.234 19.293 135.922 18.9805C135.609 18.6602 135.121 18.5 134.457 18.5C133.887 18.5 133.445 18.6289 133.133 18.8867C132.82 19.1445 132.664 19.4727 132.664 19.8711C132.664 20.2461 132.84 20.5508 133.191 20.7852C133.551 21.0117 134.152 21.2109 134.996 21.3828C135.84 21.5469 136.551 21.7344 137.129 21.9453C138.918 22.6016 139.812 23.7383 139.812 25.3555C139.812 26.5117 139.316 27.4492 138.324 28.168C137.332 28.8789 136.051 29.2344 134.48 29.2344C133.418 29.2344 132.473 29.0469 131.645 28.6719C130.824 28.2891 130.18 27.7695 129.711 27.1133C129.242 26.4492 129.008 25.7344 129.008 24.9688H132.219C132.25 25.5703 132.473 26.0312 132.887 26.3516C133.301 26.6719 133.855 26.832 134.551 26.832C135.199 26.832 135.688 26.7109 136.016 26.4688C136.352 26.2188 136.52 25.8945 136.52 25.4961ZM146.059 13.2031V16.3203H148.227V18.8047H146.059V25.1328C146.059 25.6016 146.148 25.9375 146.328 26.1406C146.508 26.3438 146.852 26.4453 147.359 26.4453C147.734 26.4453 148.066 26.418 148.355 26.3633V28.9297C147.691 29.1328 147.008 29.2344 146.305 29.2344C143.93 29.2344 142.719 28.0352 142.672 25.6367V18.8047H140.82V16.3203H142.672V13.2031H146.059Z" fill="#494D4B"/>
<path d="M5.3943 29.6936H3.09984C1.71141 29.6936 0.585938 28.568 0.585938 27.1797V23.8776C0.585938 22.4892 1.71141 21.3637 3.09984 21.3637H5.3943V29.6936Z" fill="#8257E5"/>
<path d="M34.6057 21.364H36.9001C38.2885 21.364 39.4141 22.4895 39.4141 23.8779V27.1799C39.4141 28.5683 38.2886 29.6939 36.9001 29.6939H34.6057V21.364Z" fill="#8257E5"/>
<path d="M35.3902 29.7055C34.6452 29.7055 34.0414 29.0999 34.0414 28.3528V17.3746C34.0414 9.60906 27.7419 3.29141 19.9986 3.29141C12.2553 3.29141 5.95579 9.60906 5.95579 17.3746V28.3528C5.95579 29.0999 5.35188 29.7055 4.60696 29.7055C3.86204 29.7055 3.25813 29.0999 3.25813 28.3528V17.3746C3.25805 8.11735 10.7678 0.585938 19.9985 0.585938C29.2292 0.585938 36.7391 8.11735 36.7391 17.3746V28.3528C36.7391 29.1 36.1352 29.7055 35.3902 29.7055Z" fill="#8257E5"/>
<path d="M6.30281 32.8702C4.6125 32.8702 3.24219 31.4999 3.24219 29.8095V21.2477C3.24219 19.5573 4.6125 18.1871 6.30281 18.1871C7.99313 18.1871 9.36344 19.5573 9.36344 21.2477V29.8095C9.36344 31.4999 7.99313 32.8702 6.30281 32.8702Z" fill="#04D361"/>
<path d="M6.30282 18.1871C5.73188 18.1871 5.19774 18.3439 4.74032 18.6161C5.63719 19.1498 6.23844 20.1283 6.23844 21.2477V29.8097C6.23844 30.9291 5.63719 31.9077 4.74032 32.4412C5.19774 32.7134 5.73188 32.8702 6.30282 32.8702C7.99313 32.8702 9.36345 31.5 9.36345 29.8097V21.2477C9.36345 19.5573 7.99313 18.1871 6.30282 18.1871Z" fill="#04D361"/>
<path d="M33.6785 32.8702C31.9882 32.8702 30.6179 31.4999 30.6179 29.8095V21.2477C30.6179 19.5573 31.9881 18.1871 33.6785 18.1871C35.3688 18.1871 36.7392 19.5573 36.7392 21.2477V29.8095C36.7391 31.4999 35.3688 32.8702 33.6785 32.8702Z" fill="#04D361"/>
<path d="M33.6785 18.1871C33.1075 18.1871 32.5734 18.3439 32.116 18.6161C33.0128 19.1498 33.6141 20.1283 33.6141 21.2477V29.8097C33.6141 30.9291 33.0128 31.9077 32.116 32.4412C32.5734 32.7134 33.1075 32.8702 33.6785 32.8702C35.3688 32.8702 36.7391 31.5 36.7391 29.8097V21.2477C36.7391 19.5573 35.3688 18.1871 33.6785 18.1871Z" fill="#04D361"/>
<path d="M18.3743 32.7693V36.8947H21.6255V32.7693C20.891 33.0545 20.8339 33.0631 19.9999 33.0631C19.1659 33.0631 19.1089 33.0544 18.3743 32.7693Z" fill="#04D361"/>
<path d="M15.9081 36.8947H24.0919C24.7876 36.8947 25.3516 37.4587 25.3516 38.1544C25.3516 38.8501 24.7876 39.4141 24.0919 39.4141H15.9081C15.2124 39.4141 14.6484 38.8501 14.6484 38.1544C14.6484 37.4587 15.2124 36.8947 15.9081 36.8947Z" fill="#8257E5"/>
<path d="M20 30.2758C17.1197 30.2758 14.7847 27.9409 14.7847 25.0605V16.7226C14.7847 13.8423 17.1196 11.5073 19.9999 11.5073C22.8802 11.5073 25.2151 13.8423 25.2151 16.7226V25.0605C25.2152 27.9408 22.8803 30.2758 20 30.2758Z" fill="#AFB3B1"/>
<path d="M20 11.5073C19.4556 11.5073 18.9309 11.591 18.4375 11.7458C20.5544 12.4098 22.0902 14.3867 22.0902 16.7227V25.0605C22.0902 27.3965 20.5544 29.3734 18.4375 30.0374C18.9309 30.1921 19.4556 30.2759 20 30.2759C22.8803 30.2759 25.2152 27.9409 25.2152 25.0606V16.7226C25.2152 13.8423 22.8803 11.5073 20 11.5073Z" fill="#494D4B"/>
<path d="M37.3234 20.8074C37.324 20.7965 37.325 20.7857 37.325 20.7747V17.3746C37.325 7.7943 29.5524 0 19.9985 0C16.8865 0 13.8322 0.840781 11.1659 2.43125C10.5152 2.81945 11.1155 3.82562 11.7663 3.43773C14.2512 1.95539 17.0979 1.17188 19.9985 1.17188C28.9062 1.17188 36.153 8.44039 36.153 17.3747V18.5726C35.7262 18.1773 35.2049 17.883 34.6273 17.7272C34.7099 9.62953 28.1905 2.70547 19.9985 2.70547C11.8216 2.70547 5.27133 9.62695 5.36977 17.7227C4.79297 17.8755 4.27172 18.1662 3.84391 18.5576V17.3747C3.84391 15.0777 4.31555 12.8569 5.2457 10.774C6.1443 8.76172 7.42297 6.97883 9.04609 5.47484C9.6018 4.96 8.80523 4.10023 8.24961 4.61531C6.50984 6.22734 5.13922 8.13867 4.1757 10.2962C3.17797 12.5305 2.67203 14.912 2.67203 17.3747V20.808C1.16461 21.0172 0 22.3136 0 23.8777V27.1797C0 28.7478 1.17078 30.0468 2.68391 30.2507C2.9025 32.054 4.44148 33.4561 6.30281 33.4561C8.31352 33.4561 9.94938 31.8203 9.94938 29.8095V21.2477C9.94938 19.3173 8.44141 17.7334 6.54172 17.6098C6.46891 10.1933 12.5273 3.87734 19.9985 3.87734C27.4799 3.87734 33.5129 10.1923 33.4554 17.6087C31.5483 17.7244 30.032 19.312 30.032 21.2477V29.8096C30.032 31.8203 31.6677 33.4562 33.6785 33.4562C35.5389 33.4562 37.0773 32.0554 37.297 30.2532C38.8194 30.0577 40 28.7544 40 27.1797V23.8776C40 22.312 38.833 21.0145 37.3234 20.8074ZM1.17188 27.1797V23.8776C1.17188 22.9672 1.80641 22.2027 2.65625 22.0017V29.0555C1.80641 28.8545 1.17188 28.0901 1.17188 27.1797ZM8.7775 21.2477V29.8096C8.7775 31.1741 7.66734 32.2843 6.30281 32.2843C4.93828 32.2843 3.82812 31.1741 3.82812 29.8095V21.2477C3.82812 19.8832 4.93828 18.773 6.30281 18.773C7.66734 18.773 8.7775 19.8832 8.7775 21.2477ZM36.1531 29.8095C36.1531 31.1741 35.043 32.2842 33.6785 32.2842H33.6784C32.3139 32.2842 31.2038 31.1741 31.2038 29.8095V21.2477C31.2038 19.8832 32.314 18.773 33.6785 18.773C35.043 18.773 36.1531 19.8832 36.1531 21.2477V29.8095ZM38.8281 27.1797C38.8281 28.0967 38.1843 28.8658 37.325 29.0598V21.9974C38.1843 22.1915 38.8281 22.9605 38.8281 23.8777V27.1797Z" fill="#191622"/>
<path d="M27.1097 19.7026H25.8013V16.7225C25.8013 13.5237 23.1988 10.9213 20 10.9213C16.8013 10.9213 14.1988 13.5237 14.1988 16.7225V19.7026H12.8903C12.1371 19.7026 11.5243 20.3155 11.5243 21.0687V25.0605C11.5243 27.3302 12.4131 29.4638 14.0268 31.0684C15.0901 32.1255 16.3817 32.8662 17.7885 33.245V36.3087H15.9082C14.8905 36.3087 14.0625 37.1366 14.0625 38.1543C14.0625 39.1719 14.8905 40 15.9082 40H24.0919C25.1096 40 25.9375 39.172 25.9375 38.1544C25.9375 37.1367 25.1096 36.3087 24.0919 36.3087H22.2116V33.2391C25.8136 32.2514 28.4758 28.9133 28.4758 24.9737V21.0687C28.4757 20.3155 27.863 19.7026 27.1097 19.7026ZM24.7657 38.1544C24.7657 38.5259 24.4634 38.8281 24.0919 38.8281H15.9082C15.5367 38.8281 15.2344 38.5259 15.2344 38.1544C15.2344 37.7829 15.5367 37.4806 15.9082 37.4806H24.0919C24.4634 37.4806 24.7657 37.7829 24.7657 38.1544ZM21.0397 36.3087H18.9604V33.4733C19.3027 33.515 19.6496 33.5362 19.9997 33.5362C20.0163 33.5362 20.033 33.5362 20.0496 33.5361C20.3846 33.5341 20.7149 33.5118 21.0398 33.4713V36.3087H21.0397ZM27.3039 24.9737C27.3039 28.9366 24.0311 32.3412 20.0428 32.3642C16.0553 32.3853 12.6962 29.0504 12.6962 25.0605V21.0687C12.6962 20.9616 12.7833 20.8745 12.8903 20.8745H14.1988V25.0605C14.1988 28.2593 16.8013 30.8617 20 30.8617C20.6961 30.8617 21.3783 30.7389 22.0275 30.4967C22.7374 30.2318 22.3278 29.1341 21.6178 29.3987C21.1001 29.5919 20.5558 29.6898 20 29.6898C17.4474 29.6898 15.3707 27.6131 15.3707 25.0605V16.7226C15.3707 14.17 17.4474 12.0933 20 12.0933C22.5527 12.0933 24.6294 14.17 24.6294 16.7226V25.0605C24.6294 26.0196 24.3375 26.9405 23.7852 27.7238C23.3486 28.343 24.3064 29.0183 24.743 28.3992C25.4353 27.4173 25.8013 26.2628 25.8013 25.0606V20.8746H27.1097C27.2167 20.8746 27.3039 20.9617 27.3039 21.0688V24.9737Z" fill="#191622"/>
<path d="M20.0512 23.3668C19.0945 23.3668 19.0929 24.8536 20.0512 24.8536C21.0078 24.8536 21.0095 23.3668 20.0512 23.3668Z" fill="#494D4B"/>
<path d="M20.0512 26.3842C19.0945 26.3842 19.0929 27.871 20.0512 27.871C21.0078 27.8711 21.0095 26.3842 20.0512 26.3842Z" fill="#494D4B"/>
<path d="M22.357 24.8998C21.4002 24.8998 21.3987 26.3866 22.357 26.3866C23.3137 26.3867 23.3152 24.8998 22.357 24.8998Z" fill="#494D4B"/>
</svg>
