<svg width="134" height="40" viewBox="0 0 134 40" fill="none" xmlns="http://www.w3.org/2000/svg">
<path d="M45.5234 29V11.9375H50.7734C52.2734 11.9375 53.6133 12.2773 54.793 12.957C55.9805 13.6289 56.9062 14.5898 57.5703 15.8398C58.2344 17.082 58.5664 18.4961 58.5664 20.082V20.8672C58.5664 22.4531 58.2383 23.8633 57.582 25.0977C56.9336 26.332 56.0156 27.2891 54.8281 27.9688C53.6406 28.6484 52.3008 28.9922 50.8086 29H45.5234ZM49.0391 14.7852V26.1758H50.7383C52.1133 26.1758 53.1641 25.7266 53.8906 24.8281C54.6172 23.9297 54.9883 22.6445 55.0039 20.9727V20.0703C55.0039 18.3359 54.6445 17.0234 53.9258 16.1328C53.207 15.2344 52.1562 14.7852 50.7734 14.7852H49.0391ZM66.7461 29.2344C64.8867 29.2344 63.3711 28.6641 62.1992 27.5234C61.0352 26.3828 60.4531 24.8633 60.4531 22.9648V22.6367C60.4531 21.3633 60.6992 20.2266 61.1914 19.2266C61.6836 18.2188 62.3789 17.4453 63.2773 16.9062C64.1836 16.3594 65.2148 16.0859 66.3711 16.0859C68.1055 16.0859 69.4688 16.6328 70.4609 17.7266C71.4609 18.8203 71.9609 20.3711 71.9609 22.3789V23.7617H63.8867C63.9961 24.5898 64.3242 25.2539 64.8711 25.7539C65.4258 26.2539 66.125 26.5039 66.9688 26.5039C68.2734 26.5039 69.293 26.0312 70.0273 25.0859L71.6914 26.9492C71.1836 27.668 70.4961 28.2305 69.6289 28.6367C68.7617 29.0352 67.8008 29.2344 66.7461 29.2344ZM66.3594 18.8281C65.6875 18.8281 65.1406 19.0547 64.7188 19.5078C64.3047 19.9609 64.0391 20.6094 63.9219 21.4531H68.6328V21.1836C68.6172 20.4336 68.4141 19.8555 68.0234 19.4492C67.6328 19.0352 67.0781 18.8281 66.3594 18.8281ZM78.4766 24.8633L80.832 16.3203H84.3711L80.0938 29H76.8594L72.582 16.3203H76.1211L78.4766 24.8633ZM99.4883 23.3164C99.3555 25.1523 98.6758 26.5977 97.4492 27.6523C96.2305 28.707 94.6211 29.2344 92.6211 29.2344C90.4336 29.2344 88.7109 28.5 87.4531 27.0312C86.2031 25.5547 85.5781 23.5312 85.5781 20.9609V19.918C85.5781 18.2773 85.8672 16.832 86.4453 15.582C87.0234 14.332 87.8477 13.375 88.918 12.7109C89.9961 12.0391 91.2461 11.7031 92.668 11.7031C94.6367 11.7031 96.2227 12.2305 97.4258 13.2852C98.6289 14.3398 99.3242 15.8203 99.5117 17.7266H95.9961C95.9102 16.625 95.6016 15.8281 95.0703 15.3359C94.5469 14.8359 93.7461 14.5859 92.668 14.5859C91.4961 14.5859 90.6172 15.0078 90.0312 15.8516C89.4531 16.6875 89.1562 17.9883 89.1406 19.7539V21.043C89.1406 22.8867 89.418 24.2344 89.9727 25.0859C90.5352 25.9375 91.418 26.3633 92.6211 26.3633C93.707 26.3633 94.5156 26.1172 95.0469 25.625C95.5859 25.125 95.8945 24.3555 95.9727 23.3164H99.4883ZM108.922 29C108.766 28.6953 108.652 28.3164 108.582 27.8633C107.762 28.7773 106.695 29.2344 105.383 29.2344C104.141 29.2344 103.109 28.875 102.289 28.1562C101.477 27.4375 101.07 26.5312 101.07 25.4375C101.07 24.0938 101.566 23.0625 102.559 22.3438C103.559 21.625 105 21.2617 106.883 21.2539H108.441V20.5273C108.441 19.9414 108.289 19.4727 107.984 19.1211C107.688 18.7695 107.215 18.5938 106.566 18.5938C105.996 18.5938 105.547 18.7305 105.219 19.0039C104.898 19.2773 104.738 19.6523 104.738 20.1289H101.352C101.352 19.3945 101.578 18.7148 102.031 18.0898C102.484 17.4648 103.125 16.9766 103.953 16.625C104.781 16.2656 105.711 16.0859 106.742 16.0859C108.305 16.0859 109.543 16.4805 110.457 17.2695C111.379 18.0508 111.84 19.1523 111.84 20.5742V26.0703C111.848 27.2734 112.016 28.1836 112.344 28.8008V29H108.922ZM106.121 26.6445C106.621 26.6445 107.082 26.5352 107.504 26.3164C107.926 26.0898 108.238 25.7891 108.441 25.4141V23.2344H107.176C105.48 23.2344 104.578 23.8203 104.469 24.9922L104.457 25.1914C104.457 25.6133 104.605 25.9609 104.902 26.2344C105.199 26.5078 105.605 26.6445 106.121 26.6445ZM121.309 25.4961C121.309 25.082 121.102 24.7578 120.688 24.5234C120.281 24.2812 119.625 24.0664 118.719 23.8789C115.703 23.2461 114.195 21.9648 114.195 20.0352C114.195 18.9102 114.66 17.9727 115.59 17.2227C116.527 16.4648 117.75 16.0859 119.258 16.0859C120.867 16.0859 122.152 16.4648 123.113 17.2227C124.082 17.9805 124.566 18.9648 124.566 20.1758H121.18C121.18 19.6914 121.023 19.293 120.711 18.9805C120.398 18.6602 119.91 18.5 119.246 18.5C118.676 18.5 118.234 18.6289 117.922 18.8867C117.609 19.1445 117.453 19.4727 117.453 19.8711C117.453 20.2461 117.629 20.5508 117.98 20.7852C118.34 21.0117 118.941 21.2109 119.785 21.3828C120.629 21.5469 121.34 21.7344 121.918 21.9453C123.707 22.6016 124.602 23.7383 124.602 25.3555C124.602 26.5117 124.105 27.4492 123.113 28.168C122.121 28.8789 120.84 29.2344 119.27 29.2344C118.207 29.2344 117.262 29.0469 116.434 28.6719C115.613 28.2891 114.969 27.7695 114.5 27.1133C114.031 26.4492 113.797 25.7344 113.797 24.9688H117.008C117.039 25.5703 117.262 26.0312 117.676 26.3516C118.09 26.6719 118.645 26.832 119.34 26.832C119.988 26.832 120.477 26.7109 120.805 26.4688C121.141 26.2188 121.309 25.8945 121.309 25.4961ZM130.848 13.2031V16.3203H133.016V18.8047H130.848V25.1328C130.848 25.6016 130.938 25.9375 131.117 26.1406C131.297 26.3438 131.641 26.4453 132.148 26.4453C132.523 26.4453 132.855 26.418 133.145 26.3633V28.9297C132.48 29.1328 131.797 29.2344 131.094 29.2344C128.719 29.2344 127.508 28.0352 127.461 25.6367V18.8047H125.609V16.3203H127.461V13.2031H130.848Z" fill="#494D4B"/>
<path d="M5.3943 29.6936H3.09984C1.71141 29.6936 0.585938 28.568 0.585938 27.1797V23.8776C0.585938 22.4892 1.71141 21.3637 3.09984 21.3637H5.3943V29.6936Z" fill="#8257E5"/>
<path d="M34.6057 21.364H36.9001C38.2885 21.364 39.4141 22.4895 39.4141 23.8779V27.1799C39.4141 28.5683 38.2886 29.6939 36.9001 29.6939H34.6057V21.364Z" fill="#8257E5"/>
<path d="M35.3902 29.7055C34.6452 29.7055 34.0414 29.0999 34.0414 28.3528V17.3746C34.0414 9.60906 27.7419 3.29141 19.9986 3.29141C12.2553 3.29141 5.95579 9.60906 5.95579 17.3746V28.3528C5.95579 29.0999 5.35188 29.7055 4.60696 29.7055C3.86204 29.7055 3.25813 29.0999 3.25813 28.3528V17.3746C3.25805 8.11735 10.7678 0.585938 19.9985 0.585938C29.2292 0.585938 36.7391 8.11735 36.7391 17.3746V28.3528C36.7391 29.1 36.1352 29.7055 35.3902 29.7055Z" fill="#8257E5"/>
<path d="M6.30281 32.8702C4.6125 32.8702 3.24219 31.4999 3.24219 29.8095V21.2477C3.24219 19.5573 4.6125 18.1871 6.30281 18.1871C7.99313 18.1871 9.36344 19.5573 9.36344 21.2477V29.8095C9.36344 31.4999 7.99313 32.8702 6.30281 32.8702Z" fill="#04D361"/>
<path d="M6.30282 18.1871C5.73188 18.1871 5.19774 18.3439 4.74032 18.6161C5.63719 19.1498 6.23844 20.1283 6.23844 21.2477V29.8097C6.23844 30.9291 5.63719 31.9077 4.74032 32.4412C5.19774 32.7134 5.73188 32.8702 6.30282 32.8702C7.99313 32.8702 9.36345 31.5 9.36345 29.8097V21.2477C9.36345 19.5573 7.99313 18.1871 6.30282 18.1871Z" fill="#04D361"/>
<path d="M33.6785 32.8702C31.9882 32.8702 30.6179 31.4999 30.6179 29.8095V21.2477C30.6179 19.5573 31.9881 18.1871 33.6785 18.1871C35.3688 18.1871 36.7392 19.5573 36.7392 21.2477V29.8095C36.7391 31.4999 35.3688 32.8702 33.6785 32.8702Z" fill="#04D361"/>
<path d="M33.6785 18.1871C33.1075 18.1871 32.5734 18.3439 32.116 18.6161C33.0128 19.1498 33.6141 20.1283 33.6141 21.2477V29.8097C33.6141 30.9291 33.0128 31.9077 32.116 32.4412C32.5734 32.7134 33.1075 32.8702 33.6785 32.8702C35.3688 32.8702 36.7391 31.5 36.7391 29.8097V21.2477C36.7391 19.5573 35.3688 18.1871 33.6785 18.1871Z" fill="#04D361"/>
<path d="M18.3743 32.7693V36.8947H21.6255V32.7693C20.891 33.0545 20.8339 33.0631 19.9999 33.0631C19.1659 33.0631 19.1089 33.0544 18.3743 32.7693Z" fill="#04D361"/>
<path d="M15.9081 36.8947H24.0919C24.7876 36.8947 25.3516 37.4587 25.3516 38.1544C25.3516 38.8501 24.7876 39.4141 24.0919 39.4141H15.9081C15.2124 39.4141 14.6484 38.8501 14.6484 38.1544C14.6484 37.4587 15.2124 36.8947 15.9081 36.8947Z" fill="#8257E5"/>
<path d="M20 30.2758C17.1197 30.2758 14.7847 27.9409 14.7847 25.0605V16.7226C14.7847 13.8423 17.1196 11.5073 19.9999 11.5073C22.8802 11.5073 25.2151 13.8423 25.2151 16.7226V25.0605C25.2152 27.9408 22.8803 30.2758 20 30.2758Z" fill="#AFB3B1"/>
<path d="M20 11.5073C19.4556 11.5073 18.9309 11.591 18.4375 11.7458C20.5544 12.4098 22.0902 14.3867 22.0902 16.7227V25.0605C22.0902 27.3965 20.5544 29.3734 18.4375 30.0374C18.9309 30.1921 19.4556 30.2759 20 30.2759C22.8803 30.2759 25.2152 27.9409 25.2152 25.0606V16.7226C25.2152 13.8423 22.8803 11.5073 20 11.5073Z" fill="#494D4B"/>
<path d="M37.3234 20.8074C37.324 20.7965 37.325 20.7857 37.325 20.7747V17.3746C37.325 7.7943 29.5524 0 19.9985 0C16.8865 0 13.8322 0.840781 11.1659 2.43125C10.5152 2.81945 11.1155 3.82562 11.7663 3.43773C14.2512 1.95539 17.0979 1.17188 19.9985 1.17188C28.9062 1.17188 36.153 8.44039 36.153 17.3747V18.5726C35.7262 18.1773 35.2049 17.883 34.6273 17.7272C34.7099 9.62953 28.1905 2.70547 19.9985 2.70547C11.8216 2.70547 5.27133 9.62695 5.36977 17.7227C4.79297 17.8755 4.27172 18.1662 3.84391 18.5576V17.3747C3.84391 15.0777 4.31555 12.8569 5.2457 10.774C6.1443 8.76172 7.42297 6.97883 9.04609 5.47484C9.6018 4.96 8.80523 4.10023 8.24961 4.61531C6.50984 6.22734 5.13922 8.13867 4.1757 10.2962C3.17797 12.5305 2.67203 14.912 2.67203 17.3747V20.808C1.16461 21.0172 0 22.3136 0 23.8777V27.1797C0 28.7478 1.17078 30.0468 2.68391 30.2507C2.9025 32.054 4.44148 33.4561 6.30281 33.4561C8.31352 33.4561 9.94938 31.8203 9.94938 29.8095V21.2477C9.94938 19.3173 8.44141 17.7334 6.54172 17.6098C6.46891 10.1933 12.5273 3.87734 19.9985 3.87734C27.4799 3.87734 33.5129 10.1923 33.4554 17.6087C31.5483 17.7244 30.032 19.312 30.032 21.2477V29.8096C30.032 31.8203 31.6677 33.4562 33.6785 33.4562C35.5389 33.4562 37.0773 32.0554 37.297 30.2532C38.8194 30.0577 40 28.7544 40 27.1797V23.8776C40 22.312 38.833 21.0145 37.3234 20.8074ZM1.17188 27.1797V23.8776C1.17188 22.9672 1.80641 22.2027 2.65625 22.0017V29.0555C1.80641 28.8545 1.17188 28.0901 1.17188 27.1797ZM8.7775 21.2477V29.8096C8.7775 31.1741 7.66734 32.2843 6.30281 32.2843C4.93828 32.2843 3.82812 31.1741 3.82812 29.8095V21.2477C3.82812 19.8832 4.93828 18.773 6.30281 18.773C7.66734 18.773 8.7775 19.8832 8.7775 21.2477ZM36.1531 29.8095C36.1531 31.1741 35.043 32.2842 33.6785 32.2842H33.6784C32.3139 32.2842 31.2038 31.1741 31.2038 29.8095V21.2477C31.2038 19.8832 32.314 18.773 33.6785 18.773C35.043 18.773 36.1531 19.8832 36.1531 21.2477V29.8095ZM38.8281 27.1797C38.8281 28.0967 38.1843 28.8658 37.325 29.0598V21.9974C38.1843 22.1915 38.8281 22.9605 38.8281 23.8777V27.1797Z" fill="#191622"/>
<path d="M27.1097 19.7026H25.8013V16.7225C25.8013 13.5237 23.1988 10.9213 20 10.9213C16.8013 10.9213 14.1988 13.5237 14.1988 16.7225V19.7026H12.8903C12.1371 19.7026 11.5243 20.3155 11.5243 21.0687V25.0605C11.5243 27.3302 12.4131 29.4638 14.0268 31.0684C15.0901 32.1255 16.3817 32.8662 17.7885 33.245V36.3087H15.9082C14.8905 36.3087 14.0625 37.1366 14.0625 38.1543C14.0625 39.1719 14.8905 40 15.9082 40H24.0919C25.1096 40 25.9375 39.172 25.9375 38.1544C25.9375 37.1367 25.1096 36.3087 24.0919 36.3087H22.2116V33.2391C25.8136 32.2514 28.4758 28.9133 28.4758 24.9737V21.0687C28.4757 20.3155 27.863 19.7026 27.1097 19.7026ZM24.7657 38.1544C24.7657 38.5259 24.4634 38.8281 24.0919 38.8281H15.9082C15.5367 38.8281 15.2344 38.5259 15.2344 38.1544C15.2344 37.7829 15.5367 37.4806 15.9082 37.4806H24.0919C24.4634 37.4806 24.7657 37.7829 24.7657 38.1544ZM21.0397 36.3087H18.9604V33.4733C19.3027 33.515 19.6496 33.5362 19.9997 33.5362C20.0163 33.5362 20.033 33.5362 20.0496 33.5361C20.3846 33.5341 20.7149 33.5118 21.0398 33.4713V36.3087H21.0397ZM27.3039 24.9737C27.3039 28.9366 24.0311 32.3412 20.0428 32.3642C16.0553 32.3853 12.6962 29.0504 12.6962 25.0605V21.0687C12.6962 20.9616 12.7833 20.8745 12.8903 20.8745H14.1988V25.0605C14.1988 28.2593 16.8013 30.8617 20 30.8617C20.6961 30.8617 21.3783 30.7389 22.0275 30.4967C22.7374 30.2318 22.3278 29.1341 21.6178 29.3987C21.1001 29.5919 20.5558 29.6898 20 29.6898C17.4474 29.6898 15.3707 27.6131 15.3707 25.0605V16.7226C15.3707 14.17 17.4474 12.0933 20 12.0933C22.5527 12.0933 24.6294 14.17 24.6294 16.7226V25.0605C24.6294 26.0196 24.3375 26.9405 23.7852 27.7238C23.3486 28.343 24.3064 29.0183 24.743 28.3992C25.4353 27.4173 25.8013 26.2628 25.8013 25.0606V20.8746H27.1097C27.2167 20.8746 27.3039 20.9617 27.3039 21.0688V24.9737Z" fill="#191622"/>
<path d="M20.0512 23.3668C19.0945 23.3668 19.0929 24.8536 20.0512 24.8536C21.0078 24.8536 21.0095 23.3668 20.0512 23.3668Z" fill="#494D4B"/>
<path d="M20.0512 26.3842C19.0945 26.3842 19.0929 27.871 20.0512 27.871C21.0078 27.8711 21.0095 26.3842 20.0512 26.3842Z" fill="#494D4B"/>
<path d="M22.357 24.8998C21.4002 24.8998 21.3987 26.3866 22.357 26.3866C23.3137 26.3867 23.3152 24.8998 22.357 24.8998Z" fill="#494D4B"/>
</svg>
